<svg width="131" height="235" fill="none" xmlns="http://www.w3.org/2000/svg"><g opacity=".4" clip-path="url(#clip0_2856_35591)"><path d="M65.465 137.123L0 202.56v34.209l65.465-65.437v-34.209zm0-68.416L0 134.166v34.208l65.465-65.46V68.706zm0-68.371L0 65.773v34.208l65.465-65.437V.336z" fill="#ECEEEF"/><path d="M131 134.19L65.512 68.753V34.52L131 99.981v34.209zm0 68.393l-65.488-65.46v-34.208L131 168.375v34.208zM131 271l-65.488-65.437v-34.208L131 236.792V271z" fill="#DADDDE"/></g><defs><clipPath id="clip0_2856_35591"><path fill="#fff" transform="matrix(0 -1 1 0 0 271)" d="M0 0h270.664v131H0z"/></clipPath></defs></svg>